<svg id="SvgjsSvg1000" xmlns="http://www.w3.org/2000/svg" version="1.1" xmlns:xlink="http://www.w3.org/1999/xlink" xmlns:svgjs="http://svgjs.com/svgjs" width="22" height="13"><defs id="SvgjsDefs1001"></defs><path id="SvgjsPath1007" d="M1318.755 9351.4275C1318.755 9351.7375 1319.005 9351.9875 1319.315 9351.9875L1337.915 9351.9875L1333.105 9356.797499999999C1332.9950000000001 9356.9075 1332.945 9357.047499999999 1332.945 9357.197499999998C1332.945 9357.337499999998 1332.995 9357.477499999999 1333.105 9357.587499999998C1333.325 9357.807499999997 1333.675 9357.807499999997 1333.895 9357.587499999998L1339.595 9351.897499999997C1339.805 9351.677499999998 1339.805 9351.327499999998 1339.595 9351.107499999996L1333.895 9345.407499999996C1333.675 9345.197499999997 1333.325 9345.197499999997 1333.105 9345.407499999996C1332.885 9345.627499999995 1332.885 9345.987499999996 1333.105 9346.207499999995L1337.765 9350.867499999995L1319.315 9350.867499999995C1319.005 9350.867499999995 1318.755 9351.117499999995 1318.755 9351.427499999994Z " fill="#ffffff" fill-opacity="1" transform="matrix(1,0,0,1,-1318,-9345)"></path></svg>