<?xml version="1.0" encoding="UTF-8" standalone="no"?>
<svg width="18px" height="18px" viewBox="0 0 18 18" version="1.1" xmlns="http://www.w3.org/2000/svg" xmlns:xlink="http://www.w3.org/1999/xlink">
    <!-- Generator: Sketch 39.1 (31720) - http://www.bohemiancoding.com/sketch -->
    <title>Close</title>
    <desc>Created with Sketch.</desc>
    <defs></defs>
    <g id="Page-1" stroke="none" stroke-width="1" fill="none" fill-rule="evenodd">
        <g id="iPhone-SE" transform="translate(-270.000000, -138.000000)" fill="#222222">
            <g id="Close" transform="translate(269.000000, 138.000000)">
                <path d="M19.618,7.722 L-0.0486666667,7.722 C-0.784666667,7.722 -1.382,8.31933333 -1.382,9.05533333 C-1.382,9.79133333 -0.784666667,10.3886667 -0.0486666667,10.3886667 L19.618,10.3886667 C20.354,10.3886667 20.9513333,9.79133333 20.9513333,9.05533333 C20.9513333,8.31933333 20.354,7.722 19.618,7.722 L19.618,7.722 Z" id="Shape" transform="translate(9.784667, 9.055333) rotate(-315.000000) translate(-9.784667, -9.055333) "></path>
                <path d="M19.618,7.722 L-0.0486666667,7.722 C-0.784666667,7.722 -1.382,8.31933333 -1.382,9.05533333 C-1.382,9.79133333 -0.784666667,10.3886667 -0.0486666667,10.3886667 L19.618,10.3886667 C20.354,10.3886667 20.9513333,9.79133333 20.9513333,9.05533333 C20.9513333,8.31933333 20.354,7.722 19.618,7.722 L19.618,7.722 Z" id="Shape" transform="translate(9.784667, 9.055333) rotate(-45.000000) translate(-9.784667, -9.055333) "></path>
            </g>
        </g>
    </g>
</svg>