<svg id="SvgjsSvg1008" xmlns="http://www.w3.org/2000/svg" version="1.1" xmlns:xlink="http://www.w3.org/1999/xlink" xmlns:svgjs="http://svgjs.com/svgjs" width="20" height="20"><defs id="SvgjsDefs1009"></defs><path id="SvgjsPath1010" d="M1178.68 9924L1169.1000000000001 9924C1168.4900000000002 9924 1168.0000000000002 9923.51 1168.0000000000002 9922.9L1168.0000000000002 9905.1C1168.0000000000002 9904.49 1168.4900000000002 9904 1169.1000000000001 9904L1186.9 9904C1187.51 9904 1188 9904.49 1188 9905.1L1188 9922.9C1188 9923.51 1187.51 9924 1186.9 9924L1181.8000000000002 9924L1181.8000000000002 9916.25L1184.4 9916.25L1184.7900000000002 9913.24L1181.8000000000002 9913.24L1181.8000000000002 9911.31C1181.8000000000002 9910.439999999999 1182.0400000000002 9909.84 1183.3000000000002 9909.84L1184.89 9909.84L1184.89 9907.14C1184.6200000000001 9907.099999999999 1183.67 9907.019999999999 1182.5600000000002 9907.019999999999C1180.2600000000002 9907.019999999999 1178.68 9908.429999999998 1178.68 9911.009999999998L1178.68 9913.239999999998L1176.0800000000002 9913.239999999998L1176.0800000000002 9916.249999999998L1178.68 9916.249999999998L1178.68 9923.999999999998Z " fill="#ffffff" fill-opacity="1" transform="matrix(1,0,0,1,-1168,-9904)"></path></svg>