<svg id="SvgjsSvg1011" xmlns="http://www.w3.org/2000/svg" version="1.1" xmlns:xlink="http://www.w3.org/1999/xlink" xmlns:svgjs="http://svgjs.com/svgjs" width="20" height="20"><defs id="SvgjsDefs1012"></defs><path id="SvgjsPath1013" d="M1233.73 9905.86L1242.22 9905.86C1244.3600000000001 9905.86 1246.1000000000001 9907.6 1246.1000000000001 9909.76L1246.1000000000001 9918.19C1246.1000000000001 9920.34 1244.3600000000001 9922.09 1242.22 9922.09L1233.73 9922.09C1231.58 9922.09 1229.85 9920.34 1229.85 9918.19L1229.85 9909.76C1229.85 9907.6 1231.58 9905.86 1233.73 9905.86ZM1228 9918.19C1228 9921.37 1230.56 9923.95 1233.73 9923.95L1242.22 9923.95C1245.38 9923.95 1247.95 9921.37 1247.95 9918.19L1247.95 9909.76C1247.95 9906.58 1245.38 9904 1242.22 9904L1233.73 9904C1230.56 9904 1228 9906.58 1228 9909.76Z " fill="#ffffff" fill-opacity="1" transform="matrix(1,0,0,1,-1228,-9904)"></path><path id="SvgjsPath1014" d="M1243.5 9914.28C1243.5 9911.36 1241.15 9909 1238.25 9909C1235.35 9909 1233 9911.36 1233 9914.28C1233 9917.19 1235.35 9919.560000000001 1238.25 9919.560000000001C1241.15 9919.560000000001 1243.5 9917.19 1243.5 9914.28ZM1234.85 9914.28C1234.85 9912.390000000001 1236.37 9910.86 1238.25 9910.86C1240.13 9910.86 1241.65 9912.390000000001 1241.65 9914.28C1241.65 9916.17 1240.13 9917.7 1238.25 9917.7C1236.37 9917.7 1234.85 9916.17 1234.85 9914.28Z " fill="#ffffff" fill-opacity="1" transform="matrix(1,0,0,1,-1228,-9904)"></path><path id="SvgjsPath1015" d="M1242 9908.5C1242 9907.67157 1242.67157 9907 1243.5 9907C1244.32843 9907 1245 9907.67157 1245 9908.5C1245 9909.32843 1244.32843 9910 1243.5 9910C1242.67157 9910 1242 9909.32843 1242 9908.5Z " fill="#ffffff" fill-opacity="1" transform="matrix(1,0,0,1,-1228,-9904)"></path></svg>