<svg id="SvgjsSvg1016" xmlns="http://www.w3.org/2000/svg" version="1.1" xmlns:xlink="http://www.w3.org/1999/xlink" xmlns:svgjs="http://svgjs.com/svgjs" width="22" height="20"><defs id="SvgjsDefs1017"></defs><path id="SvgjsPath1018" d="M1303.85 9923.67L1303.85 9916.76C1303.85 9914.95 1303.11 9913.710000000001 1301.4599999999998 9913.710000000001C1300.1999999999998 9913.710000000001 1299.4999999999998 9914.54 1299.1799999999998 9915.35C1299.06 9915.640000000001 1299.08 9916.04 1299.08 9916.44L1299.08 9923.67L1294.34 9923.67C1294.34 9923.67 1294.3999999999999 9911.42 1294.34 9910.31L1299.08 9910.31L1299.08 9912.4C1299.36 9911.49 1300.87 9910.18 1303.28 9910.18C1306.28 9910.18 1308.6399999999999 9912.1 1308.6399999999999 9916.24L1308.6399999999999 9923.67ZM1289.52 9908.64C1287.99 9908.64 1287 9907.609999999999 1287 9906.32C1287 9905 1288.02 9904 1289.58 9904C1291.1299999999999 9904 1292.09 9905 1292.12 9906.32C1292.12 9907.61 1291.1299999999999 9908.64 1289.55 9908.64ZM1287.55 9910.31L1287.55 9923.67L1291.76 9923.67L1291.76 9910.31Z " fill="#ffffff" fill-opacity="1" transform="matrix(1,0,0,1,-1287,-9904)"></path></svg>