<svg id="SvgjsSvg1009" xmlns="http://www.w3.org/2000/svg" version="1.1" xmlns:xlink="http://www.w3.org/1999/xlink" xmlns:svgjs="http://svgjs.com/svgjs" width="185" height="42"><defs id="SvgjsDefs1010"></defs><path id="SvgjsPath1011" d="M871.97 1062.36L892.77 1080.2199999999998C893.62 1080.9499999999998 894.9399999999999 1080.35 894.9399999999999 1079.2299999999998L894.9399999999999 1040.3099999999997C894.9399999999999 1039.1899999999998 893.6199999999999 1038.5899999999997 892.77 1039.3199999999997L849 1076.9699999999998L849 1079.2299999999998C849 1080.3499999999997 850.32 1080.9499999999998 851.17 1080.2199999999998ZM874.71 1059.76L891 1045.97L891 1073.57L874.69 1059.78L874.6500000000001 1059.77ZM852.94 1045.97L865.33 1056.54L868.38 1053.9099999999999L851.17 1039.32C850.3199999999999 1038.59 849 1039.1899999999998 849 1040.31L849 1070.4099999999999L852.94 1067.0199999999998Z " fill="#cda373" fill-opacity="1" transform="matrix(1,0,0,1,-849,-1039)"></path><path id="SvgjsPath1012" d="M913.49 1056.68C913.54 1056.8700000000001 913.73 1057.01 913.91 1057.01L914.29 1057.01C914.4599999999999 1057.01 914.65 1056.89 914.6899999999999 1056.75L918.78 1045.01L918.9 1045.01L923.06 1056.75C923.0999999999999 1056.89 923.29 1057.01 923.4599999999999 1057.01L923.8399999999999 1057.01C924.03 1057.01 924.2199999999999 1056.87 924.2599999999999 1056.68L928.7299999999999 1040.8C928.8199999999999 1040.47 928.6299999999999 1040.24 928.3 1040.24L926.7199999999999 1040.24C926.5299999999999 1040.24 926.3399999999999 1040.4 926.29 1040.57L923.48 1051.4099999999999L923.39 1051.4099999999999L919.49 1040.2599999999998C919.44 1040.1199999999997 919.28 1039.9999999999998 919.09 1039.9999999999998L918.6600000000001 1039.9999999999998C918.47 1039.9999999999998 918.3100000000001 1040.1199999999997 918.2600000000001 1040.2599999999998L914.4100000000001 1051.4099999999999L914.32 1051.4099999999999L911.46 1040.57C911.4100000000001 1040.3999999999999 911.22 1040.24 911.0300000000001 1040.24L909.45 1040.24C909.12 1040.24 908.9300000000001 1040.47 909.0200000000001 1040.8ZM951.23 1056.23C951.1800000000001 1056.56 951.34 1056.77 951.6800000000001 1056.77L953.21 1056.77C953.4000000000001 1056.77 953.61 1056.61 953.64 1056.44L955.34 1045.88C955.36 1045.88 955.4100000000001 1045.88 955.4300000000001 1045.88L959.71 1056.75C959.76 1056.89 959.9200000000001 1057.01 960.11 1057.01L960.53 1057.01C960.75 1057.01 960.89 1056.89 960.9399999999999 1056.75L965.1899999999999 1045.88C965.1899999999999 1045.88 965.2399999999999 1045.88 965.26 1045.88L967.01 1056.44C967.06 1056.6100000000001 967.24 1056.77 967.46 1056.77L968.99 1056.77C969.32 1056.77 969.49 1056.56 969.42 1056.23L966.51 1040.35C966.46 1040.1699999999998 966.28 1040 966.09 1040L965.71 1040C965.5400000000001 1040 965.35 1040.12 965.3100000000001 1040.26L960.3900000000001 1052.33L960.3000000000001 1052.33L955.36 1040.26C955.3100000000001 1040.12 955.1 1040 954.96 1040L954.58 1040C954.39 1040 954.2 1040.17 954.1600000000001 1040.35ZM939.73 1057.01C944.45 1057.01 948.23 1053.25 948.23 1048.53C948.23 1043.8 944.45 1040 939.73 1040C935 1040 931.25 1043.8 931.25 1048.53C931.25 1053.25 935 1057.01 939.73 1057.01ZM988.3 1056.32C988.3 1056.56 988.51 1056.77 988.75 1056.77L990.24 1056.77C990.5 1056.77 990.69 1056.56 990.69 1056.32L990.69 1044.82L990.71 1044.82L1000.96 1057.01L1001.58 1057.01C1001.82 1057.01 1002.0300000000001 1056.82 1002.0300000000001 1056.58L1002.0300000000001 1040.6899999999998C1002.0300000000001 1040.4499999999998 1001.82 1040.2399999999998 1001.58 1040.2399999999998L1000.07 1040.2399999999998C999.8100000000001 1040.2399999999998 999.62 1040.4499999999998 999.62 1040.6899999999998L999.62 1051.86L999.59 1051.86L989.34 1040L988.75 1040C988.51 1040 988.3 1040.19 988.3 1040.43ZM956.44 1078.64C956.44 1078.8700000000001 956.6500000000001 1079.0900000000001 956.8900000000001 1079.0900000000001L958.3800000000001 1079.0900000000001C958.6400000000001 1079.0900000000001 958.8300000000002 1078.8700000000001 958.8300000000002 1078.64L958.8300000000002 1067.13L958.8500000000001 1067.13L969.1000000000001 1079.3200000000002L969.7200000000001 1079.3200000000002C969.9500000000002 1079.3200000000002 970.1700000000002 1079.13 970.1700000000002 1078.9L970.1700000000002 1063C970.1700000000002 1062.76 969.9500000000002 1062.55 969.7200000000001 1062.55L968.2000000000002 1062.55C967.9500000000002 1062.55 967.7600000000001 1062.76 967.7600000000001 1063L967.7600000000001 1074.17L967.7300000000001 1074.17L957.4800000000001 1062.3100000000002L956.8900000000001 1062.3100000000002C956.6500000000001 1062.3100000000002 956.44 1062.5000000000002 956.44 1062.7400000000002ZM989.95 1072.92C989.95 1076.51 992.6400000000001 1079.3200000000002 996.35 1079.3200000000002C1000.08 1079.3200000000002 1002.8000000000001 1076.5100000000002 1002.8000000000001 1072.92L1002.8000000000001 1063C1002.8000000000001 1062.76 1002.59 1062.55 1002.35 1062.55L1000.77 1062.55C1000.51 1062.55 1000.3199999999999 1062.76 1000.3199999999999 1063L1000.3199999999999 1072.8C1000.3199999999999 1075.1399999999999 998.78 1076.96 996.3499999999999 1076.96C993.9399999999999 1076.96 992.43 1075.1200000000001 992.43 1072.75L992.43 1063C992.43 1062.76 992.2399999999999 1062.55 991.9799999999999 1062.55L990.3999999999999 1062.55C990.1599999999999 1062.55 989.9499999999998 1062.76 989.9499999999998 1063ZM1007.92 1078.64C1007.92 1078.8700000000001 1008.11 1079.0900000000001 1008.37 1079.0900000000001L1009.9 1079.0900000000001C1010.14 1079.0900000000001 1010.35 1078.8700000000001 1010.35 1078.64L1010.35 1072.6100000000001L1013.9200000000001 1072.6100000000001L1017.0600000000001 1078.8700000000001C1017.11 1078.97 1017.2500000000001 1079.0900000000001 1017.44 1079.0900000000001L1019.2800000000001 1079.0900000000001C1019.6800000000001 1079.0900000000001 1019.8500000000001 1078.71 1019.6800000000001 1078.4L1016.45 1072.4C1018.5 1071.5700000000002 1019.94 1069.7800000000002 1019.94 1067.6000000000001C1019.94 1064.7900000000002 1017.6300000000001 1062.5500000000002 1014.7900000000001 1062.5500000000002L1008.3700000000001 1062.5500000000002C1008.1100000000001 1062.5500000000002 1007.9200000000001 1062.7600000000002 1007.9200000000001 1063.0000000000002ZM925.32 1078.64C925.32 1078.8700000000001 925.5100000000001 1079.0900000000001 925.7700000000001 1079.0900000000001L927.3000000000001 1079.0900000000001C927.5400000000001 1079.0900000000001 927.7500000000001 1078.8700000000001 927.7500000000001 1078.64L927.7500000000001 1072.6100000000001L931.3200000000002 1072.6100000000001L934.4600000000002 1078.8700000000001C934.5100000000001 1078.97 934.6500000000002 1079.0900000000001 934.8400000000001 1079.0900000000001L936.6800000000002 1079.0900000000001C937.0800000000002 1079.0900000000001 937.2500000000002 1078.71 937.0800000000002 1078.4L933.8500000000001 1072.4C935.9000000000001 1071.5700000000002 937.3400000000001 1069.7800000000002 937.3400000000001 1067.6000000000001C937.3400000000001 1064.7900000000002 935.0300000000002 1062.5500000000002 932.1900000000002 1062.5500000000002L925.7700000000002 1062.5500000000002C925.5100000000002 1062.5500000000002 925.3200000000002 1062.7600000000002 925.3200000000002 1063.0000000000002ZM910.54 1078.64C910.54 1078.8700000000001 910.73 1079.0900000000001 910.99 1079.0900000000001L912.52 1079.0900000000001C912.76 1079.0900000000001 912.97 1078.8700000000001 912.97 1078.64L912.97 1073.0900000000001L916.4 1073.0900000000001C919.28 1073.0900000000001 921.66 1070.7 921.66 1067.7700000000002C921.66 1064.9100000000003 919.28 1062.5500000000002 916.37 1062.5500000000002L910.99 1062.5500000000002C910.73 1062.5500000000002 910.54 1062.7600000000002 910.54 1063.0000000000002ZM973.64 1056.32C973.64 1056.56 973.83 1056.77 974.09 1056.77L983.5400000000001 1056.77C983.8000000000001 1056.77 983.9900000000001 1056.56 983.9900000000001 1056.32L983.9900000000001 1055.03C983.9900000000001 1054.79 983.8000000000001 1054.58 983.5400000000001 1054.58L976.07 1054.58L976.07 1049.5L982.38 1049.5C982.62 1049.5 982.83 1049.31 982.83 1049.05L982.83 1047.73C982.83 1047.49 982.62 1047.28 982.38 1047.28L976.07 1047.28L976.07 1042.46L983.5400000000001 1042.46C983.8000000000001 1042.46 983.9900000000001 1042.24 983.9900000000001 1042.01L983.9900000000001 1040.69C983.9900000000001 1040.45 983.8000000000001 1040.24 983.5400000000001 1040.24L974.09 1040.24C973.83 1040.24 973.64 1040.45 973.64 1040.69ZM941.78 1078.64C941.78 1078.8700000000001 941.97 1079.0900000000001 942.23 1079.0900000000001L951.6800000000001 1079.0900000000001C951.94 1079.0900000000001 952.1200000000001 1078.8700000000001 952.1200000000001 1078.64L952.1200000000001 1077.3400000000001C952.1200000000001 1077.1000000000001 951.9400000000002 1076.89 951.6800000000001 1076.89L944.21 1076.89L944.21 1071.8100000000002L950.52 1071.8100000000002C950.75 1071.8100000000002 950.97 1071.6200000000001 950.97 1071.3600000000001L950.97 1070.0400000000002C950.97 1069.8000000000002 950.75 1069.5900000000001 950.52 1069.5900000000001L944.21 1069.5900000000001L944.21 1064.7700000000002L951.6800000000001 1064.7700000000002C951.94 1064.7700000000002 952.1200000000001 1064.5600000000002 952.1200000000001 1064.3200000000002L952.1200000000001 1063.0000000000002C952.1200000000001 1062.7600000000002 951.9400000000002 1062.5500000000002 951.6800000000001 1062.5500000000002L942.23 1062.5500000000002C941.97 1062.5500000000002 941.78 1062.7600000000002 941.78 1063.0000000000002ZM975.5 1078.64C975.5 1078.8700000000001 975.69 1079.0900000000001 975.95 1079.0900000000001L985.4000000000001 1079.0900000000001C985.6600000000001 1079.0900000000001 985.8400000000001 1078.8700000000001 985.8400000000001 1078.64L985.8400000000001 1077.3400000000001C985.8400000000001 1077.1000000000001 985.6600000000002 1076.89 985.4000000000001 1076.89L977.9300000000001 1076.89L977.9300000000001 1071.8100000000002L984.24 1071.8100000000002C984.47 1071.8100000000002 984.69 1071.6200000000001 984.69 1071.3600000000001L984.69 1070.0400000000002C984.69 1069.8000000000002 984.47 1069.5900000000001 984.24 1069.5900000000001L977.9300000000001 1069.5900000000001L977.9300000000001 1064.7700000000002L985.4000000000001 1064.7700000000002C985.6600000000001 1064.7700000000002 985.8400000000001 1064.5600000000002 985.8400000000001 1064.3200000000002L985.8400000000001 1063.0000000000002C985.8400000000001 1062.7600000000002 985.6600000000002 1062.5500000000002 985.4000000000001 1062.5500000000002L975.95 1062.5500000000002C975.69 1062.5500000000002 975.5 1062.7600000000002 975.5 1063.0000000000002ZM939.73 1042.36C943.11 1042.36 945.87 1045.1699999999998 945.87 1048.53C945.87 1051.91 943.11 1054.6499999999999 939.73 1054.6499999999999C936.37 1054.6499999999999 933.61 1051.9099999999999 933.61 1048.53C933.61 1045.17 936.37 1042.36 939.73 1042.36ZM927.8 1070.58L927.8 1064.84L932 1064.84C933.54 1064.84 934.89 1066.12 934.89 1067.6499999999999C934.89 1069.28 933.54 1070.58 932 1070.58ZM1010.4 1070.58L1010.4 1064.84L1014.6 1064.84C1016.14 1064.84 1017.49 1066.12 1017.49 1067.6499999999999C1017.49 1069.28 1016.14 1070.58 1014.6 1070.58ZM912.97 1070.77L912.97 1064.91L916.23 1064.91C917.86 1064.91 919.23 1066.14 919.23 1067.75C919.23 1069.45 917.86 1070.77 916.23 1070.77ZM1023.46 1077.46C1023.24 1077.27 1023.08 1077.1000000000001 1023.3100000000001 1076.7C1023.5300000000001 1076.39 1023.72 1076.04 1023.9300000000001 1075.73C1024.14 1075.42 1024.47 1075.33 1024.73 1075.54C1024.8700000000001 1075.6599999999999 1026.69 1077.17 1028.51 1077.17C1030.14 1077.17 1031.18 1076.18 1031.18 1074.98C1031.18 1073.56 1029.95 1072.66 1027.6100000000001 1071.69C1025.2 1070.68 1023.3100000000002 1069.42 1023.3100000000002 1066.68C1023.3100000000002 1064.8400000000001 1024.7300000000002 1062.3100000000002 1028.4900000000002 1062.3100000000002C1030.8500000000001 1062.3100000000002 1032.6200000000003 1063.5400000000002 1032.8600000000001 1063.7100000000003C1033.0500000000002 1063.8200000000002 1033.2400000000002 1064.1600000000003 1033.0000000000002 1064.5100000000002C1032.8100000000002 1064.7900000000002 1032.6000000000001 1065.1200000000001 1032.4100000000003 1065.4100000000003C1032.2200000000003 1065.7100000000003 1031.9100000000003 1065.8600000000004 1031.5800000000004 1065.6400000000003C1031.4200000000003 1065.5500000000004 1029.7600000000004 1064.4600000000003 1028.3900000000003 1064.4600000000003C1026.4100000000003 1064.4600000000003 1025.7200000000003 1065.7100000000003 1025.7200000000003 1066.5900000000004C1025.7200000000003 1067.9400000000003 1026.7600000000002 1068.7600000000004 1028.7200000000003 1069.5700000000004C1031.4600000000003 1070.6800000000003 1033.8000000000002 1071.9800000000005 1033.8000000000002 1074.8600000000004C1033.8000000000002 1077.3100000000004 1031.6100000000001 1079.3200000000004 1028.5400000000002 1079.3200000000004C1025.65 1079.3200000000004 1023.8300000000002 1077.8100000000004 1023.4600000000002 1077.4600000000005Z " fill="#222222" fill-opacity="1" transform="matrix(1,0,0,1,-849,-1039)"></path></svg>