<?xml version="1.0" encoding="UTF-8" standalone="no"?>
<svg width="23px" height="16px" viewBox="0 0 23 16" version="1.1" xmlns="http://www.w3.org/2000/svg" xmlns:xlink="http://www.w3.org/1999/xlink">
    <!-- Generator: Sketch 39.1 (31720) - http://www.bohemiancoding.com/sketch -->
    <title>Menu</title>
    <desc>Created with Sketch.</desc>
    <defs></defs>
    <g id="Page-1" stroke="none" stroke-width="1" fill="none" fill-rule="evenodd">
        <g id="iPhone-SE" transform="translate(-265.000000, -36.000000)" fill="#222222">
            <g id="Menu" transform="translate(265.000000, 36.000000)">
                <path d="M7.54266667,2.722 L21.9733333,2.722 C22.5133333,2.722 22.952,2.12466667 22.952,1.38866667 C22.952,0.652666667 22.514,0.0553333333 21.9733333,0.0553333333 L7.54266667,0.0553333333 C7.00266667,0.0553333333 6.56466667,0.652666667 6.56466667,1.38866667 C6.56466667,2.12466667 7.002,2.722 7.54266667,2.722 L7.54266667,2.722 Z" id="Shape"></path>
                <path d="M21.618,6.722 L1.95133333,6.722 C1.21533333,6.722 0.618,7.31933333 0.618,8.05533333 C0.618,8.79133333 1.21533333,9.38866667 1.95133333,9.38866667 L21.618,9.38866667 C22.354,9.38866667 22.9513333,8.79133333 22.9513333,8.05533333 C22.9513333,7.31933333 22.354,6.722 21.618,6.722 L21.618,6.722 Z" id="Shape"></path>
                <path d="M21.9726667,13.278 L7.54266667,13.278 C7.00266667,13.278 6.56466667,13.8753333 6.56466667,14.6113333 C6.56466667,15.3473333 7.00266667,15.9446667 7.54266667,15.9446667 L21.9733333,15.9446667 C22.5133333,15.9446667 22.952,15.3473333 22.952,14.6113333 C22.952,13.8753333 22.5133333,13.278 21.9726667,13.278 L21.9726667,13.278 Z" id="Shape"></path>
            </g>
        </g>
    </g>
</svg>